<svg xmlns="http://www.w3.org/2000/svg" width="174.134" height="145.142" viewBox="0 0 174.134 145.142"><defs><style>.a{fill:#fff;}.b{fill:#04d361;}</style></defs><g transform="translate(32.157 136.079)"><g transform="translate(0 0)"><path class="a" d="M1.016-2.589V-11.41h3.09a4.057,4.057,0,0,1,2.436.615,2.1,2.1,0,0,1,.83,1.8,1.993,1.993,0,0,1-.333,1.142,1.925,1.925,0,0,1-.927.724,1.862,1.862,0,0,1,1.069.685,2.024,2.024,0,0,1,.391,1.26,2.328,2.328,0,0,1-.812,1.927,3.655,3.655,0,0,1-2.314.666ZM2.833-6.43v2.381H4.39a1.5,1.5,0,0,0,1-.306,1.049,1.049,0,0,0,.36-.845A1.108,1.108,0,0,0,4.5-6.43Zm0-1.284H4.178q1.375-.024,1.375-1.1a1.013,1.013,0,0,0-.348-.863,1.832,1.832,0,0,0-1.1-.264H2.833ZM22.385-6.8a5.325,5.325,0,0,1-.46,2.284A3.468,3.468,0,0,1,20.606-3a3.645,3.645,0,0,1-1.966.533,3.67,3.67,0,0,1-1.957-.527A3.5,3.5,0,0,1,15.351-4.5a5.173,5.173,0,0,1-.479-2.251v-.436a5.3,5.3,0,0,1,.47-2.293A3.5,3.5,0,0,1,16.668-11a3.65,3.65,0,0,1,1.96-.53,3.65,3.65,0,0,1,1.96.53A3.5,3.5,0,0,1,21.915-9.48a5.282,5.282,0,0,1,.47,2.287Zm-1.842-.4a3.712,3.712,0,0,0-.5-2.108,1.619,1.619,0,0,0-1.418-.721,1.62,1.62,0,0,0-1.412.712,3.67,3.67,0,0,0-.5,2.087v.43a3.759,3.759,0,0,0,.5,2.1,1.615,1.615,0,0,0,1.43.745,1.6,1.6,0,0,0,1.406-.718,3.737,3.737,0,0,0,.5-2.093Zm16.613.4a5.325,5.325,0,0,1-.46,2.284A3.468,3.468,0,0,1,35.378-3a3.645,3.645,0,0,1-1.966.533,3.67,3.67,0,0,1-1.957-.527A3.5,3.5,0,0,1,30.122-4.5a5.173,5.173,0,0,1-.479-2.251v-.436a5.3,5.3,0,0,1,.47-2.293A3.5,3.5,0,0,1,31.439-11a3.65,3.65,0,0,1,1.96-.53,3.65,3.65,0,0,1,1.96.53A3.5,3.5,0,0,1,36.686-9.48a5.282,5.282,0,0,1,.47,2.287Zm-1.842-.4a3.712,3.712,0,0,0-.5-2.108,1.619,1.619,0,0,0-1.418-.721,1.62,1.62,0,0,0-1.412.712,3.67,3.67,0,0,0-.5,2.087v.43a3.759,3.759,0,0,0,.5,2.1,1.615,1.615,0,0,0,1.43.745,1.6,1.6,0,0,0,1.406-.718,3.737,3.737,0,0,0,.5-2.093ZM50.806-9.938H48.1v7.349H46.286V-9.938H43.62V-11.41h7.186Zm14,4.411a3.121,3.121,0,0,1-1.051,2.242,3.692,3.692,0,0,1-2.5.818,3.32,3.32,0,0,1-2.669-1.142,4.683,4.683,0,0,1-.972-3.135v-.539a5.288,5.288,0,0,1,.448-2.242,3.36,3.36,0,0,1,1.281-1.487,3.59,3.59,0,0,1,1.936-.518,3.6,3.6,0,0,1,2.46.818,3.355,3.355,0,0,1,1.078,2.3H63a1.842,1.842,0,0,0-.476-1.239,1.761,1.761,0,0,0-1.245-.385,1.544,1.544,0,0,0-1.36.651,3.65,3.65,0,0,0-.464,2.021V-6.7a3.907,3.907,0,0,0,.433,2.09,1.516,1.516,0,0,0,1.366.66,1.794,1.794,0,0,0,1.257-.385,1.738,1.738,0,0,0,.476-1.191ZM77.18-4.406H73.993l-.606,1.818H71.454l3.284-8.821h1.684l3.3,8.821H77.792Zm-2.7-1.472h2.205L75.58-9.18ZM89.127-11.41l2.266,6.4,2.254-6.4h2.387v8.821H94.211V-5l.182-4.162L92.011-2.589H90.763L88.388-9.156,88.57-5v2.411H86.752V-11.41ZM105.644-5.7v3.108h-1.818V-11.41h3.441a3.981,3.981,0,0,1,1.748.364,2.679,2.679,0,0,1,1.16,1.033,2.88,2.88,0,0,1,.406,1.524,2.533,2.533,0,0,1-.888,2.045,3.7,3.7,0,0,1-2.457.748Zm0-1.472h1.624a1.6,1.6,0,0,0,1.1-.339,1.234,1.234,0,0,0,.379-.969,1.455,1.455,0,0,0-.382-1.048,1.426,1.426,0,0,0-1.054-.412h-1.666Z" transform="translate(-1.016 11.531)"/></g></g><g transform="translate(46.116)"><path class="b" d="M1576.623-295.022c-8.474-4.651-17.052-9.4-25.527-14.055a5.929,5.929,0,0,0-5.581,0c-8.474,4.651-16.949,9.4-25.424,14.055a5.277,5.277,0,0,0-2.791,4.444v28.318a5.136,5.136,0,0,0,2.894,4.547c2.377,1.24,4.65,2.584,7.028,3.824l13.849,7.648,4.237,2.377a3.665,3.665,0,0,0,.93.413l.413.207h.1a5.955,5.955,0,0,0,4.237-.413c8.475-4.651,16.95-9.4,25.424-14.056a5.2,5.2,0,0,0,2.894-4.547v-28.318A5.312,5.312,0,0,0,1576.623-295.022Zm-36.689,31.728-6.614,6.1a.381.381,0,0,1-.31.1h-.1a.2.2,0,0,1-.1-.31l2.377-8.681a2.884,2.884,0,0,1,1.86-2.067l.1-.1a.907.907,0,0,1,.724.1c.414.31.723.517,1.137.827a7.676,7.676,0,0,0,1.24.723.7.7,0,0,1,.413.62l.207.207A2.919,2.919,0,0,1,1539.934-263.294Zm6.821-5.994c-.1,0-.1.1-.207.1l-2.067-.207a.76.76,0,0,0-.62.207l-2.274,2.067a.379.379,0,0,1-.31.1,15.42,15.42,0,0,1-3.1-1.86c-.1-.1-.207-.207-.1-.31l.723-3a.685.685,0,0,0-.1-.62l-1.137-1.757c0-.1-.1-.1-.1-.207,0-.207.1-.413.1-.723v-.1h0s.1-.1.1,0c.93.62,4.857,3,4.857,3s3.927,2.377,4.858,3a.38.38,0,0,1,.1.31ZM1560.6-288.2l.1.1,2.067.31h.1c.413.1.93.62.206,1.55l-8.681,11.782a.622.622,0,0,1-.414.1l-3.514-2.17a1.115,1.115,0,0,0-1.136,0l-1.137.723a1.12,1.12,0,0,1-1.137,0,1.61,1.61,0,0,0-2.17.207,4.349,4.349,0,0,1-5.064.207l-4.651-2.894-.207-.207h0a1.344,1.344,0,0,1-.1-1.964h0a1.528,1.528,0,0,1,2.067-.517l.93.517h.1c.1.1.207,0,.207-.1l.206-1.24c0-.1,0-.207-.1-.207l-.206-.1a.957.957,0,0,1-.31-1.24.831.831,0,0,1,1.137-.31l6.3,3.824h.1c.1.1.207,0,.31-.1l6.511-8.888a1.148,1.148,0,0,1,1.137-.413l1.653.207,1.137.207c0,.1.1,0,.1,0,.1-.1.1-.1,0-.1a.98.98,0,0,1-.207-1.344l2.17-3a1.2,1.2,0,0,1,1.033-.413l4.134.62a.538.538,0,0,1,.414.207l.1.1a.511.511,0,0,1-.1.724s-2.067,2.79-2.791,3.824v.1C1560.4-288.408,1560.4-288.3,1560.6-288.2Z" transform="translate(-1507.689 312.591)"/><path class="a" d="M1555.618-305.782c3.2-2.48,4.961-3,7.648-3a5.262,5.262,0,0,1,2.274.517c2.377,1.344,3.41,5.374,2.687,11.162l3.411,1.86c1.137-8.268-.413-13.952-4.444-16.226a8.188,8.188,0,0,0-4.134-1.033c-3.618,0-6.511,1.033-11.058,4.651C1553.344-307.126,1554.481-306.4,1555.618-305.782Z" transform="translate(-1506.527 312.5)"/><path class="a" d="M1517.612-270.4c-4.754-2.274-5.891-4.134-5.891-6.718,0-2.687,2.687-5.271,7.544-7.544V-288.8c-7.234,3-11.265,7.131-11.265,11.575,0,4.547,2.377,7.751,9.611,10.748Z" transform="translate(-1508 313.294)"/><path class="a" d="M1526.727-298.761c-.62-5.684.413-8.061,2.894-9.4a3.687,3.687,0,0,1,2.274-.517c2.687,0,5.787,1.447,8.991,3.927l3.411-1.86c-4.444-3.617-8.888-5.684-12.505-5.684a8.191,8.191,0,0,0-4.134,1.033c-4.031,2.377-5.684,6.3-4.444,14.572C1524.453-297.521,1525.59-298.141,1526.727-298.761Z" transform="translate(-1507.504 312.507)"/><path class="a" d="M1577.254-287.8v3.927c4.754,2.274,5.891,4.134,5.891,6.718,0,2.687-2.687,5.271-7.544,7.544v4.134c7.234-3,11.265-7.131,11.265-11.575C1586.866-281.6,1584.592-284.8,1577.254-287.8Z" transform="translate(-1505.737 313.327)"/><path class="a" d="M1539.635-248.755c-3.2,2.48-4.961,3-7.648,3a5.259,5.259,0,0,1-2.274-.517c-2.48-1.344-3.411-5.478-2.687-11.162-1.136-.62-2.377-1.24-3.514-1.964-1.137,8.165.413,13.849,4.341,16.122a8.19,8.19,0,0,0,4.134,1.033c3.617.1,6.615-.93,11.162-4.547Z" transform="translate(-1507.493 314.278)"/><path class="a" d="M1568.476-255.736c.62,5.684-.517,8.061-2.894,9.4a3.687,3.687,0,0,1-2.274.517c-2.687,0-5.787-1.447-9.094-3.927-1.137.62-2.273,1.24-3.514,1.86,4.548,3.721,8.888,5.788,12.608,5.788a8.192,8.192,0,0,0,4.134-1.033c4.031-2.377,5.787-6.3,4.444-14.572C1570.853-257.08,1569.613-256.46,1568.476-255.736Z" transform="translate(-1506.57 314.335)"/></g><g transform="translate(0 90.112)"><path class="b" d="M-6.132-3.869A3.486,3.486,0,0,0-7.49-6.824,17.821,17.821,0,0,0-12.381-9a34.673,34.673,0,0,1-5.593-2.253q-5.616-3.034-5.616-8.175a7.962,7.962,0,0,1,1.506-4.767,9.823,9.823,0,0,1,4.325-3.272,16.279,16.279,0,0,1,6.329-1.177,14.817,14.817,0,0,1,6.3,1.279A10.024,10.024,0,0,1-.844-23.75a9.451,9.451,0,0,1,1.528,5.3H-6.109a4.446,4.446,0,0,0-1.427-3.521,5.864,5.864,0,0,0-4.008-1.257,6.265,6.265,0,0,0-3.872,1.053A3.321,3.321,0,0,0-16.8-19.4a3.181,3.181,0,0,0,1.619,2.695,18.292,18.292,0,0,0,4.767,2.038q5.8,1.744,8.446,4.325A8.613,8.613,0,0,1,.684-3.914,7.934,7.934,0,0,1-2.554,2.8q-3.238,2.434-8.718,2.434A16.835,16.835,0,0,1-18.2,3.842,10.965,10.965,0,0,1-22.968.026a9.771,9.771,0,0,1-1.642-5.616h6.816q0,5.457,6.522,5.457A6.344,6.344,0,0,0-7.49-1.117,3.2,3.2,0,0,0-6.132-3.869ZM12.686-25.743v6.023h4.189v4.8H12.686V-2.691a2.92,2.92,0,0,0,.521,1.947A2.616,2.616,0,0,0,15.2-.155a10.436,10.436,0,0,0,1.925-.159V4.646a13.472,13.472,0,0,1-3.963.589q-6.884,0-7.02-6.952v-13.2H2.564v-4.8H6.142v-6.023ZM34.719,4.782a7.267,7.267,0,0,1-.657-2.2A7.918,7.918,0,0,1,27.88,5.234a8.7,8.7,0,0,1-5.967-2.083A6.7,6.7,0,0,1,19.547-2.1,6.924,6.924,0,0,1,22.434-8.08q2.887-2.083,8.344-2.106H33.79v-1.4a4.037,4.037,0,0,0-.872-2.717,3.43,3.43,0,0,0-2.751-1.019,3.9,3.9,0,0,0-2.593.793,2.692,2.692,0,0,0-.94,2.174H20.09A6.574,6.574,0,0,1,21.4-16.3a8.681,8.681,0,0,1,3.714-2.842,13.534,13.534,0,0,1,5.389-1.03A10.693,10.693,0,0,1,37.7-17.9a7.961,7.961,0,0,1,2.661,6.4V-.879A11.714,11.714,0,0,0,41.331,4.4v.385ZM29.307.23a5.636,5.636,0,0,0,2.672-.645A4.239,4.239,0,0,0,33.79-2.148V-6.359H31.345q-4.914,0-5.231,3.4l-.023.385a2.62,2.62,0,0,0,.86,2.015A3.342,3.342,0,0,0,29.307.23ZM55.574-.042a4.292,4.292,0,0,0,2.944-1A3.491,3.491,0,0,0,59.7-3.687h6.137A8.394,8.394,0,0,1,64.473.875a8.965,8.965,0,0,1-3.657,3.215,11.445,11.445,0,0,1-5.129,1.144A10.637,10.637,0,0,1,47.4,1.894q-3.034-3.34-3.034-9.228v-.43q0-5.661,3.012-9.035a10.513,10.513,0,0,1,8.265-3.374,10.305,10.305,0,0,1,7.371,2.615,9.26,9.26,0,0,1,2.819,6.963H59.7a4.46,4.46,0,0,0-1.177-3.091,3.937,3.937,0,0,0-2.989-1.189,3.943,3.943,0,0,0-3.453,1.664q-1.166,1.664-1.166,5.4v.679q0,3.782,1.155,5.435A3.993,3.993,0,0,0,55.574-.042Zm22.893-5L76.112-2.691V4.782H69.568V-30h6.544v19.27l1.268-1.63,6.272-7.359H91.51L82.656-9.507,92.28,4.782H84.762Z" transform="translate(81.854 30)"/><path class="a" d="M-47.083.428a11.791,11.791,0,0,1-5.186,3.408A21.716,21.716,0,0,1-59.7,5.048,14.713,14.713,0,0,1-67.2,3.18a12.46,12.46,0,0,1-4.982-5.423,19.087,19.087,0,0,1-1.8-8.356v-2.242a20.271,20.271,0,0,1,1.664-8.548,12.312,12.312,0,0,1,4.8-5.525,13.828,13.828,0,0,1,7.348-1.913q5.865,0,9.171,2.8a11.951,11.951,0,0,1,3.917,8.141H-53.7a6.574,6.574,0,0,0-2-4.144,6.4,6.4,0,0,0-4.268-1.313,6.024,6.024,0,0,0-5.276,2.6q-1.812,2.6-1.834,7.744v2.106q0,5.186,1.97,7.835A6.746,6.746,0,0,0-59.334-.41q3.827,0,5.457-1.63V-7.724h-6.182v-5h12.975Zm4.053-8.31a14.531,14.531,0,0,1,1.4-6.5A10.278,10.278,0,0,1-37.584-18.8a11.792,11.792,0,0,1,6.125-1.562,11.157,11.157,0,0,1,8.1,3.034,12.178,12.178,0,0,1,3.5,8.243l.045,1.676A12.806,12.806,0,0,1-22.967,1.64a10.941,10.941,0,0,1-8.446,3.408,11,11,0,0,1-8.458-3.4q-3.159-3.4-3.159-9.239Zm6.544.476a9.134,9.134,0,0,0,1.313,5.333A4.335,4.335,0,0,0-31.413-.228,4.345,4.345,0,0,0-27.7-2.051q1.336-1.823,1.336-5.831a9.042,9.042,0,0,0-1.336-5.3,4.345,4.345,0,0,0-3.759-1.879,4.274,4.274,0,0,0-3.714,1.868Q-36.485-11.324-36.485-7.407Z" transform="translate(73.984 30.187)"/></g></svg>